# Max2Obj Version 4.0 Mar 10th, 2001
#
# object ChamferBox01 to come ...
#
v  -0.55 2.7 -0.3
v  0.55 2.7 -0.3
v  -0.55 2.7 0.3
v  0.55 2.7 0.3
v  -0.55 2.685 -0.335
v  -0.575 2.685 -0.325
v  -0.585 2.685 -0.3
v  -0.585 2.685 0.3
v  -0.575 2.685 0.325
v  -0.55 2.685 0.335
v  0.55 2.685 0.335
v  0.575 2.685 0.325
v  0.585 2.685 0.3
v  0.585 2.685 -0.3
v  0.575 2.685 -0.325
v  0.55 2.685 -0.335
v  -0.55 2.65 -0.35
v  -0.585 2.65 -0.335
v  -0.6 2.65 -0.3
v  -0.6 2.65 0.3
v  -0.585 2.65 0.335
v  -0.55 2.65 0.35
v  0.55 2.65 0.35
v  0.585 2.65 0.335
v  0.6 2.65 0.3
v  0.6 2.65 -0.3
v  0.585 2.65 -0.335
v  0.55 2.65 -0.35
v  -0.55 0.05 -0.35
v  -0.585 0.05 -0.335
v  -0.6 0.05 -0.3
v  -0.6 0.05 0.3
v  -0.585 0.05 0.335
v  -0.55 0.05 0.35
v  0.55 0.05 0.35
v  0.585 0.05 0.335
v  0.6 0.05 0.3
v  0.6 0.05 -0.3
v  0.585 0.05 -0.335
v  0.55 0.05 -0.35
v  -0.55 0.015 -0.335
v  -0.575 0.015 -0.325
v  -0.585 0.015 -0.3
v  -0.585 0.015 0.3
v  -0.575 0.015 0.325
v  -0.55 0.015 0.335
v  0.55 0.015 0.335
v  0.575 0.015 0.325
v  0.585 0.015 0.3
v  0.585 0.015 -0.3
v  0.575 0.015 -0.325
v  0.55 0.015 -0.335
v  0.55 0 0.3
v  -0.55 0 0.3
v  0.55 0 -0.3
v  -0.55 0 -0.3
# 56 vertices

vt  -0.049 1.079 -0.099
vt  1.049 1.079 -0.099
vt  -0.049 1.079 1.099
vt  1.049 1.079 1.099
vt  -0.049 1.074 -0.17
vt  -0.074 1.074 -0.149
vt  -0.085 1.074 -0.099
vt  -0.085 1.074 1.099
vt  -0.074 1.074 1.149
vt  -0.049 1.074 1.17
vt  1.049 1.074 1.17
vt  1.074 1.074 1.149
vt  1.085 1.074 1.099
vt  1.085 1.074 -0.099
vt  1.074 1.074 -0.149
vt  1.049 1.074 -0.17
vt  -0.049 1.059 -0.199
vt  -0.085 1.059 -0.17
vt  -0.099 1.059 -0.099
vt  -0.099 1.059 1.099
vt  -0.085 1.059 1.17
vt  -0.049 1.059 1.199
vt  1.049 1.059 1.199
vt  1.085 1.059 1.17
vt  1.099 1.059 1.099
vt  1.099 1.059 -0.099
vt  1.085 1.059 -0.17
vt  1.049 1.059 -0.199
vt  -0.049 0.02 -0.199
vt  -0.085 0.02 -0.17
vt  -0.099 0.02 -0.099
vt  -0.099 0.02 1.099
vt  -0.085 0.02 1.17
vt  -0.049 0.02 1.199
vt  1.049 0.02 1.199
vt  1.085 0.02 1.17
vt  1.099 0.02 1.099
vt  1.099 0.02 -0.099
vt  1.085 0.02 -0.17
vt  1.049 0.02 -0.199
vt  -0.049 0.006 -0.17
vt  -0.074 0.006 -0.149
vt  -0.085 0.006 -0.099
vt  -0.085 0.006 1.099
vt  -0.074 0.006 1.149
vt  -0.049 0.006 1.17
vt  1.049 0.006 1.17
vt  1.074 0.006 1.149
vt  1.085 0.006 1.099
vt  1.085 0.006 -0.099
vt  1.074 0.006 -0.149
vt  1.049 0.006 -0.17
vt  1.049 0 1.099
vt  -0.049 0 1.099
vt  1.049 0 -0.099
vt  -0.049 0 -0.099
# 56 texture vertices

vn  0 1 0
vn  0 1 0
vn  0 1 0
vn  0 1 0
vn  -0.157 0.912 -0.378
vn  -0.157 0.912 -0.378
vn  -0.378 0.912 -0.157
vn  -0.383 0.924 0
vn  -0.378 0.912 0.157
vn  -0.157 0.912 0.378
vn  0 0.924 0.383
vn  0.157 0.912 0.378
vn  0.378 0.912 0.157
vn  0.383 0.924 0
vn  0.378 0.912 -0.157
vn  0.157 0.912 -0.378
vn  -0.357 0.357 -0.863
vn  -0.357 0.357 -0.863
vn  -0.863 0.357 -0.357
vn  -0.924 0.383 0
vn  -0.863 0.357 0.357
vn  -0.357 0.357 0.863
vn  0 0.383 0.924
vn  0.357 0.357 0.863
vn  0.863 0.357 0.357
vn  0.924 0.383 0
vn  0.863 0.357 -0.357
vn  0.357 0.357 -0.863
vn  -0.383 0 -0.924
vn  -0.383 0 -0.924
vn  -0.924 0 -0.383
vn  -1 0 0
vn  -0.924 0 0.383
vn  -0.383 0 0.924
vn  0 0 1
vn  0.383 0 0.924
vn  0.924 0 0.383
vn  1 0 0
vn  0.924 0 -0.383
vn  0.383 0 -0.924
vn  -0.357 -0.357 -0.863
vn  -0.357 -0.357 -0.863
vn  -0.863 -0.357 -0.357
vn  -0.924 -0.383 0
vn  -0.863 -0.357 0.357
vn  -0.357 -0.357 0.863
vn  0 -0.383 0.924
vn  0.357 -0.357 0.863
vn  0.863 -0.357 0.357
vn  0.924 -0.383 0
vn  0.863 -0.357 -0.357
vn  0.357 -0.357 -0.863
vn  0 -0.924 0.383
vn  -0.383 -0.924 0
vn  0.383 -0.924 0
vn  -0.157 -0.912 -0.378
# 56 vertex normals

g ChamferBox01
s 0
f 4/4/4 2/2/2 1/1/1 3/3/3
f 6/6/6 7/7/7 1/1/1 5/5/5
f 8/8/8 3/3/3 1/1/1 7/7/7
f 9/9/9 10/10/10 3/3/3 8/8/8
f 11/11/11 4/4/4 3/3/3 10/10/10
f 12/12/12 13/13/13 4/4/4 11/11/11
f 14/14/14 2/2/2 4/4/4 13/13/13
f 15/15/15 16/16/16 2/2/2 14/14/14
f 5/5/5 1/1/1 2/2/2 16/16/16
f 18/18/18 6/6/6 5/5/5 17/17/17
f 19/19/19 7/7/7 6/6/6 18/18/18
f 20/20/20 8/8/8 7/7/7 19/19/19
f 21/21/21 9/9/9 8/8/8 20/20/20
f 22/22/22 10/10/10 9/9/9 21/21/21
f 23/23/23 11/11/11 10/10/10 22/22/22
f 24/24/24 12/12/12 11/11/11 23/23/23
f 25/25/25 13/13/13 12/12/12 24/24/24
f 26/26/26 14/14/14 13/13/13 25/25/25
f 27/27/27 15/15/15 14/14/14 26/26/26
f 28/28/28 16/16/16 15/15/15 27/27/27
f 17/17/17 5/5/5 16/16/16 28/28/28
f 30/30/30 18/18/18 17/17/17 29/29/29
f 31/31/31 19/19/19 18/18/18 30/30/30
f 32/32/32 20/20/20 19/19/19 31/31/31
f 33/33/33 21/21/21 20/20/20 32/32/32
f 34/34/34 22/22/22 21/21/21 33/33/33
f 35/35/35 23/23/23 22/22/22 34/34/34
f 36/36/36 24/24/24 23/23/23 35/35/35
f 37/37/37 25/25/25 24/24/24 36/36/36
f 38/38/38 26/26/26 25/25/25 37/37/37
f 39/39/39 27/27/27 26/26/26 38/38/38
f 40/40/40 28/28/28 27/27/27 39/39/39
f 29/29/29 17/17/17 28/28/28 40/40/40
f 42/42/42 30/30/30 29/29/29 41/41/41
f 43/43/43 31/31/31 30/30/30 42/42/42
f 44/44/44 32/32/32 31/31/31 43/43/43
f 45/45/45 33/33/33 32/32/32 44/44/44
f 46/46/46 34/34/34 33/33/33 45/45/45
f 47/47/47 35/35/35 34/34/34 46/46/46
f 48/48/48 36/36/36 35/35/35 47/47/47
f 49/49/49 37/37/37 36/36/36 48/48/48
f 50/50/50 38/38/38 37/37/37 49/49/49
f 51/51/51 39/39/39 38/38/38 50/50/50
f 52/52/52 40/40/40 39/39/39 51/51/51
f 41/41/41 29/29/29 40/40/40 52/52/52
f 41/41/41 52/52/52 56/56/56 42/42/42
f 54/54/54 44/44/44 43/43/43 56/56/56
f 53/53/53 47/47/47 46/46/46 54/54/54
f 55/55/55 50/50/50 49/49/49 53/53/53
f 54/54/54 56/56/56 55/55/55 53/53/53
f 42/42/42 56/56/56 43/43/43
f 44/44/44 54/54/54 45/45/45
f 45/45/45 54/54/54 46/46/46
f 47/47/47 53/53/53 48/48/48
f 48/48/48 53/53/53 49/49/49
f 50/50/50 55/55/55 51/51/51
f 51/51/51 55/55/55 52/52/52
f 52/52/52 55/55/55 56/56/56
# 58 faces

g
